PathFileType	4	(X/Y/Z)	./resultDataOpenSim/trcMotMarkerGrf/sub10/qtm-05-01.trc
DataRate	CameraRate	NumFrames	NumMarkers	Units	OrigDataRate	OrigDataStartFrame	OrigNumFrames
250.000000	250.000000	14	24	m	250.000000	373	496
Frame#	Time	L.Toe.Tip			R.Toe.Tip			L.Ankle.Lat			R.Ankle.Lat			L.Ankle.Med			R.Ankle.Med			L.Heel			R.Heel			L.Knee.Lat			R.Knee.Lat			L.Knee.Med			R.Knee.Med			L.Thigh.Upper			R.Thigh.Upper			L.ASIS			R.ASIS			V.Sacral			L.Acromium			R.Acromium			C7			L.Elbow			R.Elbow			L.Wrist.Lat			R.Wrist.Lat
		X1	Y1	Z1	X2	Y2	Z2	X3	Y3	Z3	X4	Y4	Z4	X5	Y5	Z5	X6	Y6	Z6	X7	Y7	Z7	X8	Y8	Z8	X9	Y9	Z9	X10	Y10	Z10	X11	Y11	Z11	X12	Y12	Z12	X13	Y13	Z13	X14	Y14	Z14	X15	Y15	Z15	X16	Y16	Z16	X17	Y17	Z17	X18	Y18	Z18	X19	Y19	Z19	X20	Y20	Z20	X21	Y21	Z21	X22	Y22	Z22	X23	Y23	Z23	X24	Y24	Z24

373	1.488	0.67998509	0.10096155	-0.11582163	0.95075531	0.038627928	0.035172795	0.6696311	0.23880313	-0.15769153	0.8080836	0.05612443	0.065613614	0.69014115	0.24459112	-0.077113146	0.83186591	0.081713123	-0.017163457	0.61822064	0.28390585	-0.11281769	0.75707498	0.033625514	0.018853665	0.96944726	0.46428435	-0.1765902	0.90588531	0.44401723	0.10369175	0.98885345	0.4302964	-0.056163083	0.91038333	0.45278426	-0.023543658	0.84253271	0.81639391	-0.20223049	0.86873369	0.86043962	0.17453613	0.90270285	0.9284721	-0.14473188	0.93136173	0.94739961	0.093410201	0.71644819	0.96047782	-0.010574534	0.87923582	1.4206762	-0.1732926	0.86572186	1.4124723	0.14435348	0.79106137	1.4426819	-0.020830248	0.81566819	1.0892873	-0.25888502	0.77210085	1.0692961	0.21852536	0.95372096	0.88695819	-0.23308368	0.97943565	0.94120167	0.28460547
374	1.492	0.69739297	0.10032065	-0.11745018	0.95074921	0.038630353	0.035211264	0.68232015	0.23802443	-0.15754428	0.8081074	0.056254668	0.065529511	0.70300643	0.24376359	-0.077132399	0.83195328	0.08189223	-0.017160848	0.62965259	0.28144078	-0.11240493	0.75703731	0.033746162	0.018680791	0.97933703	0.46737278	-0.17671076	0.90624799	0.44421197	0.10401723	0.99971017	0.43334615	-0.056550271	0.91052751	0.45269948	-0.023604754	0.84932195	0.81815364	-0.20296023	0.87251849	0.86093986	0.17455467	0.90867238	0.93001819	-0.14454345	0.93588957	0.94819546	0.093564656	0.72155162	0.96157886	-0.011346536	0.88322838	1.4220119	-0.17327964	0.86992297	1.4136854	0.14448343	0.79539907	1.4437781	-0.020648366	0.81604163	1.0911079	-0.25864438	0.77881085	1.0694951	0.21937337	0.95352436	0.88734713	-0.23650532	0.98912314	0.94477896	0.28388401
375	1.496	0.71470403	0.099618478	-0.11900791	0.95075506	0.038630907	0.035251115	0.69509339	0.23697716	-0.15737574	0.80800502	0.056434051	0.065473295	0.71600813	0.24269366	-0.07712925	0.83206408	0.082068921	-0.017175523	0.6412015	0.2787375	-0.11192592	0.75698417	0.033897497	0.018506403	0.98912547	0.47035377	-0.17685484	0.906548	0.44441986	0.10438603	1.0105857	0.43645186	-0.056695787	0.91076482	0.45267088	-0.023582712	0.85619372	0.81986859	-0.20358942	0.87610103	0.86143995	0.17453691	0.91479206	0.93152312	-0.14438189	0.94040307	0.94890253	0.09374217	0.72656129	0.96262474	-0.012295058	0.88722238	1.4232671	-0.17326608	0.87409519	1.4148288	0.14461761	0.79973074	1.4447935	-0.020471246	0.81745702	1.0929514	-0.25894997	0.78546308	1.0695995	0.21999556	0.95331528	0.88775555	-0.23995949	0.9987934	0.94832327	0.28315623
376	1.5	0.73185074	0.098832138	-0.1204714	0.95077229	0.03862953	0.035293402	0.70792116	0.23569419	-0.1572169	0.80781068	0.056656591	0.065439642	0.72956317	0.24134651	-0.07718941	0.83221102	0.082254527	-0.017212708	0.65289044	0.27579479	-0.11139156	0.75689406	0.03406592	0.018342645	0.99881343	0.47321447	-0.17702087	0.90678845	0.44462192	0.10478724	1.0230455	0.43976798	-0.056218506	0.91106065	0.45273092	-0.023543011	0.86322066	0.8215357	-0.20409499	0.87964171	0.86197011	0.17444926	0.92091282	0.93298104	-0.14423596	0.94489335	0.94952281	0.093942391	0.73157234	0.96363431	-0.013420474	0.89121691	1.4244381	-0.17325215	0.87824897	1.4159081	0.14475661	0.80406118	1.445724	-0.020305875	0.8192882	1.0947692	-0.25940899	0.79221589	1.0696958	0.2205378	0.95309749	0.88818288	-0.24343185	1.0084737	0.95182648	0.28243465
377	1.504	0.74890276	0.097962913	-0.1218928	0.95079513	0.038623314	0.035337293	0.72078895	0.23419895	-0.15709071	0.80759257	0.056894471	0.065412018	0.74371002	0.23972014	-0.077330466	0.8324065	0.082459433	-0.017273044	0.66479627	0.27260816	-0.11084052	0.75681732	0.034245075	0.018174892	1.008406	0.47594864	-0.17720116	0.90703122	0.44480352	0.10518076	1.0379476	0.44339515	-0.054933034	0.91128643	0.45285224	-0.023622768	0.87029811	0.82314681	-0.20453284	0.88330064	0.86252914	0.17427149	0.92694958	0.93438373	-0.14409506	0.94935305	0.9500627	0.09416482	0.73668455	0.96458801	-0.014650358	0.89521337	1.4255304	-0.17323692	0.88238815	1.4169261	0.14489449	0.80839313	1.4465703	-0.020153654	0.8211811	1.0964845	-0.2600864	0.79921499	1.0698033	0.22122307	0.95289202	0.88861942	-0.24687032	1.0181286	0.9552822	0.28173127
378	1.508	0.76593452	0.097024462	-0.12333583	0.95081688	0.038606939	0.035378458	0.73371064	0.23249147	-0.15699649	0.807437	0.057113593	0.065366602	0.75792008	0.2378683	-0.077476425	0.8326682	0.082668506	-0.017359638	0.67696152	0.26919213	-0.11029141	0.75687154	0.034459021	0.017964067	1.0178979	0.47856771	-0.17738639	0.90734337	0.44496222	0.10553585	1.0540262	0.44713328	-0.053280993	0.91154963	0.4529797	-0.023740424	0.87734938	0.82469784	-0.2049234	0.88709697	0.86307334	0.17402419	0.93291388	0.93572198	-0.14396042	0.95378255	0.95053125	0.094409364	0.74193973	0.96544481	-0.015877798	0.89921727	1.4265517	-0.17321822	0.88650937	1.4178783	0.14502533	0.81272112	1.447333	-0.02000888	0.82301257	1.0981037	-0.26109867	0.80645727	1.0698588	0.22223946	0.95272449	0.88905603	-0.25022958	1.0276831	0.95869974	0.28104739
379	1.512	0.78289718	0.096010164	-0.12480306	0.95083425	0.038577323	0.035411811	0.74670519	0.23055983	-0.15691729	0.80737552	0.057304297	0.06529399	0.77178713	0.2358221	-0.077566473	0.83297985	0.082846748	-0.017468891	0.68932221	0.26557272	-0.10970967	0.7570947	0.034738301	0.017691443	1.0272759	0.48109423	-0.17757046	0.90773793	0.4451071	0.1058604	1.0684845	0.45056705	-0.052144756	0.9120708	0.45308626	-0.023691622	0.88442176	0.82618605	-0.20521593	0.89096432	0.86355069	0.17374183	0.93884553	0.93698679	-0.14383539	0.95819082	0.95094193	0.094675223	0.74729328	0.96619272	-0.017037651	0.90324198	1.4274997	-0.17319383	0.89061106	1.4187583	0.14514971	0.81703798	1.4480189	-0.019868118	0.8246998	1.0997319	-0.2622283	0.81382885	1.0697852	0.22367888	0.95261839	0.88949103	-0.25352715	1.0371057	0.96208684	0.28037553
380	1.516	0.79970858	0.094912149	-0.12625243	0.95084949	0.038542037	0.035435657	0.75977607	0.22840039	-0.15684143	0.80737545	0.057481915	0.065202533	0.78541859	0.23357465	-0.077601524	0.83324332	0.082988149	-0.017568265	0.70178579	0.26175936	-0.1090644	0.7573712	0.035077867	0.01739182	1.036536	0.48353684	-0.17775525	0.90819819	0.44525185	0.1061795	1.0796473	0.45346277	-0.052017538	0.91290868	0.45320691	-0.023397457	0.89149676	0.82760822	-0.20542424	0.89479954	0.86394033	0.17345348	0.94477042	0.93817801	-0.14371789	0.96259254	0.95131396	0.094958992	0.75267536	0.96685524	-0.018130696	0.90730442	1.4283612	-0.17316176	0.89469695	1.4195626	0.14527156	0.82134494	1.4486387	-0.019735035	0.82604473	1.1014639	-0.26307756	0.82124081	1.0695699	0.22544387	0.95260464	0.88992549	-0.25682989	1.0464407	0.96543123	0.27970652
381	1.52	0.81644447	0.093761476	-0.12767346	0.95086762	0.038516975	0.035451326	0.77291697	0.22602442	-0.15677053	0.80739617	0.057663325	0.065103239	0.79910551	0.23113344	-0.077585762	0.83337342	0.083127636	-0.017626984	0.71433908	0.25774026	-0.10838187	0.75756744	0.035439693	0.017115189	1.0456858	0.48588538	-0.17794913	0.90872772	0.44540217	0.10650218	1.0878306	0.45587242	-0.052747659	0.91400166	0.45337915	-0.022893863	0.89836983	0.8289631	-0.20569873	0.89851972	0.86425039	0.1731777	0.95069366	0.93930154	-0.14360276	0.96700271	0.951662	0.095253217	0.75810215	0.96745551	-0.019189518	0.91140922	1.4291286	-0.17312534	0.89877438	1.4202923	0.14539348	0.82565189	1.4491937	-0.019613304	0.82677961	1.1033092	-0.26331328	0.82868966	1.069288	0.22722375	0.95270626	0.89035966	-0.26018974	1.0557603	0.96871252	0.27903235
382	1.524	0.83330315	0.092594019	-0.12909136	0.95088955	0.038510697	0.035461143	0.78612816	0.22344885	-0.15670999	0.80741878	0.057854978	0.065001611	0.81293813	0.2285398	-0.077487629	0.83339947	0.083298426	-0.017655425	0.72704225	0.25349694	-0.10772056	0.75766577	0.035793979	0.016896383	1.0547331	0.48812794	-0.17815901	0.90934141	0.44555356	0.10682138	1.0940005	0.45790924	-0.05398375	0.91530201	0.45353437	-0.022248364	0.90489158	0.83024865	-0.20615189	0.9021244	0.86449684	0.17291201	0.95660028	0.94035865	-0.14348812	0.97142056	0.95197222	0.095548028	0.76364333	0.96800091	-0.020248409	0.91554145	1.4298086	-0.17309476	0.90285069	1.4209521	0.1455155	0.82996788	1.449675	-0.019505222	0.82674976	1.1052238	-0.26276456	0.83621278	1.0690358	0.22870948	0.95289058	0.89078716	-0.26358601	1.0651102	0.97192158	0.27834395
383	1.528	0.85038231	0.091380237	-0.13051068	0.95091304	0.0385181	0.035466438	0.7994213	0.22068263	-0.15666034	0.80743903	0.058054634	0.064898215	0.82671812	0.22585123	-0.07727579	0.83339199	0.083510046	-0.017674482	0.73993131	0.24901882	-0.10711188	0.75774889	0.036137569	0.016777178	1.0636715	0.49025811	-0.17838689	0.91002518	0.44570069	0.10713436	1.0990728	0.45965492	-0.055435551	0.91674314	0.45353891	-0.021580102	0.91120995	0.8314657	-0.20670263	0.90566098	0.86469261	0.17264536	0.96245899	0.9413456	-0.14337409	0.97581641	0.95219674	0.095834546	0.76925678	0.96849787	-0.021341043	0.91968255	1.4304103	-0.17307572	0.90692849	1.4215436	0.14563493	0.83429182	1.4500765	-0.019414539	0.82601006	1.1071587	-0.2614614	0.84383304	1.0688533	0.22981928	0.95307316	0.89119776	-0.26694154	1.0744906	0.97505659	0.2776312
384	1.532	0.8676283	0.090034969	-0.13190381	0.95094335	0.038525567	0.035462728	0.81281245	0.21772559	-0.15662049	0.80745503	0.058255905	0.064792277	0.84024402	0.22309785	-0.0769918	0.83340969	0.083757342	-0.01768897	0.7529625	0.2443123	-0.10653592	0.75790981	0.036461426	0.016795579	1.0724752	0.4922671	-0.17863329	0.91073708	0.44583899	0.10744903	1.104157	0.46125138	-0.056858057	0.91821879	0.45335979	-0.020990231	0.91756673	0.83262163	-0.20721638	0.90917573	0.86484707	0.17237417	0.96823946	0.94225842	-0.1432543	0.98015878	0.95230663	0.096111318	0.77476397	0.96896735	-0.022533471	0.9238314	1.4309327	-0.17306192	0.91100458	1.4220639	0.14574599	0.83861339	1.4504009	-0.019342796	0.82476851	1.1090748	-0.25958673	0.8515466	1.0687188	0.23066364	0.95319199	0.89159345	-0.27021158	1.0838643	0.97811209	0.2768933
385	1.536	0.88498308	0.088508521	-0.13324215	0.95099424	0.038515582	0.035440592	0.8263195	0.21458006	-0.15659595	0.80746481	0.058452837	0.064686177	0.8535881	0.22025771	-0.076736303	0.83352287	0.084023526	-0.017697913	0.7660777	0.23939826	-0.10596755	0.75816671	0.036717289	0.016905117	1.0811204	0.49413908	-0.1788955	0.91145239	0.44596316	0.10777286	1.1103079	0.46289932	-0.058081796	0.91966128	0.45309595	-0.020455179	0.92402573	0.83371702	-0.20766961	0.91269363	0.86496637	0.17209755	0.97394571	0.94309537	-0.14311772	0.98445075	0.9523364	0.096387765	0.78003148	0.96943586	-0.023892842	0.92800458	1.4313694	-0.17304634	0.91507404	1.4225086	0.1458425	0.84292512	1.450656	-0.019289796	0.82329025	1.1109402	-0.25738472	0.85933261	1.0685904	0.2313765	0.95324489	0.8919875	-0.2734185	1.0931874	0.98108478	0.27614543
386	1.54	0.90243046	0.086847826	-0.1345137	0.95106978	0.038479721	0.03540116	0.83995722	0.21125641	-0.15659788	0.80747241	0.058641357	0.064586216	0.86695408	0.21729107	-0.076567476	0.83376886	0.084283874	-0.017692654	0.77926974	0.23430352	-0.1054267	0.75843287	0.036862348	0.01695923	1.0896203	0.49586231	-0.17916144	0.91218101	0.44607188	0.10810298	1.1178217	0.46469877	-0.059056881	0.92105067	0.45285831	-0.019923986	0.93054394	0.8347398	-0.20810102	0.91621614	0.86505078	0.17181143	0.97962997	0.94385977	-0.14296784	0.98871666	0.95234048	0.096676231	0.78511874	0.9699071	-0.025299234	0.93221917	1.4317169	-0.17303155	0.91913754	1.4228748	0.14592353	0.84723087	1.4508444	-0.019258536	0.8218481	1.1127245	-0.25510924	0.86716754	1.0684408	0.23202979	0.95325674	0.89238694	-0.2765992	1.1024437	0.98398148	0.27540086
